<svg width="16" height="16" viewBox="0 0 16 16" fill="none" xmlns="http://www.w3.org/2000/svg">
<g clip-path="url(#clip0_20385_42413)">
<path fill-rule="evenodd" clip-rule="evenodd" d="M7.99937 7.99994C9.99937 7.99994 10.9994 5.18818 10.9994 2.96465C10.9989 1.32721 9.67141 3.27366e-05 8.03397 5.57118e-10H7.96408C6.32672 -3.13999e-05 4.99937 1.3273 4.99937 2.96465C4.99937 5.18818 5.99937 7.99994 7.99937 7.99994ZM1.07783 15.0055C1.34877 12.9127 2.37781 9 4.99955 9C5.18257 9 5.43257 9.13397 5.74955 9.30385C6.29859 9.59808 7.04859 10 7.99955 10C8.9502 10 9.70003 9.59815 10.249 9.30392C10.5663 9.1339 10.8164 8.99982 10.9996 9C13.6212 9.00252 14.6503 12.9133 14.9213 15.0055C14.9922 15.5532 14.5518 16 13.9996 16H1.99956C1.44727 16 1.00692 15.5532 1.07783 15.0055Z" fill="#657077"/>
</g>
<defs>
<clipPath id="clip0_20385_42413">
<rect width="16" height="16" fill="white"/>
</clipPath>
</defs>
</svg>