<svg width="16" height="16" viewBox="0 0 16 16" fill="none" xmlns="http://www.w3.org/2000/svg">
<path d="M7.99996 1.00018L7.99999 0.000183105L7.99996 1.00018ZM2.09634 14.0068L3.08339 14.1673L2.09634 14.0068ZM6.07199 9.90334L6.54434 9.02192H6.54433L6.07199 9.90334ZM9.92867 9.9034L9.45629 9.022H9.45629L9.92867 9.9034ZM10.572 9.64289L10.5729 8.6429H10.5729L10.572 9.64289ZM13.9047 14.0069L14.8918 13.8464V13.8464L13.9047 14.0069ZM8.99965 3.50014C8.99965 4.4116 8.84442 5.10403 8.61749 5.5297C8.41049 5.91798 8.20628 6.00014 8.00019 6.00014V8.00014C9.12743 8.00014 9.92296 7.3323 10.3824 6.47058C10.8218 5.64625 10.9997 4.58868 10.9997 3.50014H8.99965ZM8.99965 2.99991V3.50014H10.9997V2.99991H8.99965ZM7.99994 2.00018C8.55207 2.0002 8.99965 2.44779 8.99965 2.99991H10.9997C10.9997 1.34323 9.65666 0.000218868 7.99999 0.000183105L7.99994 2.00018ZM7.00019 2.99991C7.00019 2.44777 7.4478 2.00017 7.99994 2.00018L7.99999 0.000183105C6.34326 0.000147343 5.00019 1.34318 5.00019 2.99991H7.00019ZM7.00019 3.50014V2.99991H5.00019V3.50014H7.00019ZM8.00019 6.00014C7.79402 6.00014 7.58966 5.91789 7.38254 5.52955C7.15552 5.10389 7.00019 4.41149 7.00019 3.50014H5.00019C5.00019 4.58879 5.17819 5.64639 5.61784 6.47073C6.07739 7.33239 6.87303 8.00014 8.00019 8.00014V6.00014ZM5.42913 8.64289C3.85406 8.64289 2.81752 9.64703 2.19536 10.6851C1.57613 11.7183 1.25545 12.9471 1.10929 13.8464L3.08339 14.1673C3.20839 13.3981 3.47234 12.4449 3.91085 11.7133C4.34642 10.9865 4.8407 10.6429 5.42913 10.6429V8.64289ZM6.54433 9.02192C6.4195 8.95503 6.25971 8.86864 6.10856 8.80246C5.973 8.74311 5.72284 8.64289 5.42913 8.64289V10.6429C5.35002 10.6429 5.29838 10.629 5.28695 10.6258C5.27421 10.6222 5.27856 10.6224 5.30643 10.6346C5.3333 10.6463 5.37001 10.664 5.42164 10.6905C5.47344 10.7171 5.53 10.7474 5.59964 10.7847L6.54433 9.02192ZM8.00056 9.50004C7.46411 9.50004 7.02308 9.27848 6.54434 9.02192L5.59964 10.7847C6.06211 11.0326 6.90679 11.5 8.00056 11.5V9.50004ZM9.45629 9.022C8.97757 9.27857 8.53671 9.50004 8.00056 9.50004V11.5C9.09409 11.5 9.93864 11.0326 10.401 10.7848L9.45629 9.022ZM10.5729 8.6429C10.2787 8.64261 10.0282 8.74296 9.89247 8.80235C9.74117 8.86857 9.58121 8.95505 9.45629 9.022L10.401 10.7848C10.4707 10.7474 10.5273 10.7171 10.5792 10.6905C10.6308 10.6639 10.6675 10.6463 10.6944 10.6345C10.7223 10.6223 10.7266 10.6222 10.7137 10.6258C10.7022 10.6291 10.6504 10.643 10.571 10.6429L10.5729 8.6429ZM14.8918 13.8464C14.7456 12.9473 14.4249 11.719 13.8056 10.686C13.1835 9.64816 12.1473 8.64441 10.5729 8.6429L10.571 10.6429C11.1601 10.6435 11.6547 10.9877 12.0902 11.7143C12.5287 12.4459 12.7927 13.3986 12.9177 14.1673L14.8918 13.8464ZM13.0006 16.0002C14.073 16.0002 15.0942 15.0911 14.8918 13.8464L12.9177 14.1673C12.9148 14.1498 12.9151 14.1219 12.9249 14.091C12.9342 14.0616 12.9487 14.0398 12.9618 14.0258C12.9869 13.9989 13.0055 14.0002 13.0006 14.0002V16.0002ZM3.00056 16.0002H13.0006V14.0002H3.00056V16.0002ZM1.10929 13.8464C0.907012 15.0911 1.92809 16.0002 3.00056 16.0002V14.0002C2.99565 14.0002 3.01423 13.9989 3.03935 14.0258C3.05243 14.0398 3.0669 14.0616 3.07619 14.091C3.08595 14.1219 3.08624 14.1497 3.08339 14.1673L1.10929 13.8464Z" fill="#333333"/>
</svg>